<svg width="116" height="120" xmlns="http://www.w3.org/2000/svg" xmlns:xlink="http://www.w3.org/1999/xlink" overflow="hidden"><g transform="translate(-342 -321)"><path d="M0 0 43.5026 27.6335" stroke="#BFBFBF" stroke-width="1.66667" stroke-linecap="round" stroke-miterlimit="8" fill="none" fill-rule="evenodd" transform="matrix(1 0 0 -1 349 410.633)"></path><path d="M418.502 341.537 344 333" stroke="#BFBFBF" stroke-width="1.66667" stroke-linecap="round" stroke-miterlimit="8" fill="none" fill-rule="evenodd"></path><path d="M456.597 330.076 393 325" stroke="#BFBFBF" stroke-width="1.66667" stroke-linecap="round" stroke-miterlimit="8" fill="none" fill-rule="evenodd"></path><path d="M0 0 48.9961 7.70257" stroke="#BFBFBF" stroke-width="1.66667" stroke-linecap="round" stroke-miterlimit="8" fill="none" fill-rule="evenodd" transform="matrix(-1 0 0 1 392.996 325)"></path><path d="M0 0 38.0912 12.4478" stroke="#BFBFBF" stroke-width="1.66667" stroke-linecap="round" stroke-miterlimit="8" fill="none" fill-rule="evenodd" transform="matrix(-1 0 0 1 456.091 330)"></path><path d="M347.922 411.357 344 333" stroke="#BFBFBF" stroke-width="1.66667" stroke-linecap="round" stroke-miterlimit="8" fill="none" fill-rule="evenodd"></path><path d="M416.525 436.685 348 411" stroke="#BFBFBF" stroke-width="1.66667" stroke-linecap="round" stroke-miterlimit="8" fill="none" fill-rule="evenodd"></path><path d="M394 383 453.128 398.867" stroke="#BFBFBF" stroke-width="1.66667" stroke-linecap="round" stroke-miterlimit="8" fill="none" fill-rule="evenodd"></path><path d="M0 0 3.46089 70.447" stroke="#BFBFBF" stroke-width="1.66667" stroke-linecap="round" stroke-miterlimit="8" fill="none" fill-rule="evenodd" transform="matrix(-1 0 0 1 456.461 330)"></path><path d="M0 0 45.2218 86.2906" stroke="#0027A4" stroke-width="6" stroke-linecap="round" stroke-miterlimit="8" fill="none" fill-rule="evenodd" transform="matrix(1 0 0 -1 348 411.291)"></path><path d="M0 0 3.73512 95.3637" stroke="#0027A4" stroke-width="6" stroke-linecap="round" stroke-miterlimit="8" fill="none" fill-rule="evenodd" transform="matrix(1 0 0 -1 416 436.364)"></path><path d="M0 0 36.498 36.9682" stroke="#0027A4" stroke-width="6" stroke-linecap="round" stroke-miterlimit="8" fill="none" fill-rule="evenodd" transform="matrix(1 0 0 -1 416 436.968)"></path><path d="M0 0 35.1309 21.9966" stroke="#0027A4" stroke-width="6" stroke-linecap="round" stroke-miterlimit="8" fill="none" fill-rule="evenodd" transform="matrix(1 0 0 -1 348 410.997)"></path><path d="M0 0 0.000104987 58.6571" stroke="#0027A4" stroke-width="6" stroke-linecap="round" stroke-miterlimit="8" fill="none" fill-rule="evenodd" transform="matrix(1 0 0 -1 393 383.657)"></path></g></svg>